# xmcd
#
# Track frame offsets: 
#        150
#        23747
#        36497
#        56970
#        74175
#        96625
#        115125
#        135302
#        158335
#        173712
#        188157
#        200925
#        222747
#        238162
#        254355
#        272265
#        288375
#
# Disc length: 4074 seconds
#
# Revision: 0
# Processed by: cddbd v1.4PL0 Copyright (c) Steve Scherf et al.
# Submitted via: ExactAudioCopy v0.90b4
#
DISCID=0e0fe811
DTITLE=Tom Shaka - Timeless In Blues
DYEAR=1995
DGENRE=Blues
TTITLE0=On The Road Again
TTITLE1=Hideaway
TTITLE2=Goin' Back To Texas
TTITLE3=Hesitation Blues
TTITLE4=Honest I Do
TTITLE5=Goin' To Brownsville
TTITLE6=Treat Everybody Right
TTITLE7=I Got A Friend
TTITLE8=Black and White Blues
TTITLE9=Ballin' The Jack
TTITLE10=Madison Blues
TTITLE11=Just A Dream
TTITLE12=Delta Queen
TTITLE13=Crawdad Song
TTITLE14=001 Blues
TTITLE15=Crossroads Blues
TTITLE16=I Feel Like Going Home
EXTD=
EXTT0=
EXTT1=
EXTT2=
EXTT3=
EXTT4=
EXTT5=
EXTT6=
EXTT7=
EXTT8=
EXTT9=
EXTT10=
EXTT11=
EXTT12=
EXTT13=
EXTT14=
EXTT15=
EXTT16=
PLAYORDER=
